<?xml version="1.0" encoding="utf-8"?>
<!-- Generator: Adobe Illustrator 16.0.0, SVG Export Plug-In . SVG Version: 6.00 Build 0)  -->
<!DOCTYPE svg PUBLIC "-//W3C//DTD SVG 1.1//EN" "http://www.w3.org/Graphics/SVG/1.1/DTD/svg11.dtd">
<svg version="1.1" id="Layer_1" xmlns="http://www.w3.org/2000/svg" xmlns:xlink="http://www.w3.org/1999/xlink" x="0px" y="0px"
	 width="20.625px" height="20.625px" viewBox="0 0 20.625 20.625" enable-background="new 0 0 20.625 20.625" xml:space="preserve">
<path d="M0.01,0.009v20.607h20.605V0.009H0.01z M12.674,17.571c-0.379,0.074-0.512-0.158-0.512-0.357c0-0.246,0.01-1.051,0.01-2.047
	c0-0.695-0.24-1.15-0.508-1.381c1.662-0.184,3.406-0.814,3.406-3.68c0-0.814-0.291-1.48-0.768-2.002
	c0.076-0.188,0.334-0.945-0.074-1.973c0,0-0.625-0.201-2.049,0.764c-0.596-0.166-1.232-0.248-1.867-0.252
	C9.68,6.647,9.041,6.729,8.445,6.896C7.021,5.931,6.395,6.132,6.395,6.132C5.99,7.159,6.246,7.917,6.322,8.104
	c-0.477,0.521-0.77,1.188-0.77,2.002c0,2.857,1.744,3.498,3.398,3.686c-0.213,0.186-0.404,0.516-0.473,0.996
	c-0.428,0.191-1.506,0.521-2.17-0.619c0,0-0.395-0.715-1.145-0.77c0,0-0.729-0.008-0.051,0.455c0,0,0.488,0.229,0.828,1.09
	c0,0,0.438,1.451,2.512,1c0.006,0.623,0.01,1.092,0.01,1.27c0,0.197-0.135,0.428-0.508,0.357c-2.965-0.984-5.1-3.781-5.1-7.074
	c0-4.121,3.34-7.459,7.457-7.459c4.119,0,7.457,3.338,7.457,7.459C17.77,13.79,15.635,16.583,12.674,17.571z"/>
</svg>
