<?xml version="1.0" encoding="utf-8"?>
<!-- Generator: Adobe Illustrator 16.0.0, SVG Export Plug-In . SVG Version: 6.00 Build 0)  -->
<!DOCTYPE svg PUBLIC "-//W3C//DTD SVG 1.1//EN" "http://www.w3.org/Graphics/SVG/1.1/DTD/svg11.dtd">
<svg version="1.1" id="Layer_1" xmlns="http://www.w3.org/2000/svg" xmlns:xlink="http://www.w3.org/1999/xlink" x="0px" y="0px"
	 width="20.625px" height="20.625px" viewBox="0 0 20.625 20.625" enable-background="new 0 0 20.625 20.625" xml:space="preserve">
<g>
	<path d="M5.76,10.983c1.23-0.571,2.047-2.003,0.972-4.747c-1.073-2.745-2.753-2.886-3.885-2.48
		c-1.131,0.406-2.032,1.646-1.328,4.47C2.222,11.049,4.528,11.554,5.76,10.983z"/>
	<path d="M0,11.871v5.068c0.165-0.072,0.352-0.148,0.516-0.204c0.403-0.138,1.745-0.424,2.416-0.506
		c0.671-0.083,1.688-0.28,1.688-0.28s-0.383-0.443-0.593-0.902c-0.208-0.46-0.27-1.071-0.201-1.451
		c0.067-0.38,0.225-0.698,0.225-0.698s-1.057-0.007-1.812-0.087c-0.754-0.078-1.354-0.349-1.765-0.607
		C0.325,12.11,0.155,11.989,0,11.871z"/>
	<path d="M9.217,20.487c-0.123-0.589-0.562-1.084-1.278-1.617c-0.716-0.534-1.997-1.371-1.997-1.371s-1.415-0.048-2.38,0.082
		c-0.966,0.129-1.962,0.41-2.595,0.73C0.335,18.633,0.189,18.897,0,19.146v1.479h9.239C9.232,20.577,9.227,20.53,9.217,20.487z"/>
	<path d="M17.543,8.839v3.247h-2.218V8.839H12.19V6.622h3.135V3.256h2.218v3.366h3.082V0H0v3.834C0.715,3.208,2.285,2.11,4.512,2.11
		c3.259,0,7.303,0,7.303,0l-1.323,1.613L8.439,3.725c0,0,1.07,0.86,1.389,2.086c0.319,1.224,0.441,3.404-0.783,4.654
		c-1.226,1.25-2.377,1.985-2.377,3.015s1.643,1.788,3.063,2.915c1.421,1.127,2.084,2.45,2.084,3.528
		c0,0.234-0.029,0.473-0.074,0.702h8.885V8.839H17.543z"/>
</g>
</svg>
