<?xml version="1.0" encoding="utf-8"?>
<!-- Generator: Adobe Illustrator 16.0.0, SVG Export Plug-In . SVG Version: 6.00 Build 0)  -->
<!DOCTYPE svg PUBLIC "-//W3C//DTD SVG 1.1//EN" "http://www.w3.org/Graphics/SVG/1.1/DTD/svg11.dtd">
<svg version="1.1" id="Layer_1" xmlns="http://www.w3.org/2000/svg" xmlns:xlink="http://www.w3.org/1999/xlink" x="0px" y="0px"
	 width="20.625px" height="20.625px" viewBox="0 0 20.625 20.625" enable-background="new 0 0 20.625 20.625" xml:space="preserve">
<g>
	<path d="M20.078,4.709l-4.161-4.163c-0.722-0.721-1.896-0.721-2.617,0l-3.001,3.003l2.115,1.404l2.193-2.193l3.257,3.257
		l-6.867,6.867l-2.136-2.136l-1.761,1.761l2.589,2.589c0.359,0.361,0.833,0.54,1.308,0.54c0.473,0,0.947-0.179,1.309-0.54
		l7.772-7.773c0.35-0.349,0.542-0.813,0.543-1.308C20.621,5.522,20.429,5.058,20.078,4.709z"/>
	<path d="M6.018,17.864l-3.259-3.256l6.869-6.867l2.136,2.136l1.761-1.762l-2.589-2.588c-0.721-0.721-1.894-0.722-2.617-0.001
		l-7.772,7.774c-0.349,0.349-0.542,0.813-0.542,1.307c0,0.495,0.192,0.96,0.542,1.31l4.162,4.16
		c0.349,0.351,0.813,0.543,1.308,0.543s0.96-0.192,1.309-0.543l3.002-3.001l-2.117-1.405L6.018,17.864z"/>
</g>
</svg>
