<?xml version="1.0" encoding="utf-8"?>
<!-- Generator: Adobe Illustrator 16.0.0, SVG Export Plug-In . SVG Version: 6.00 Build 0)  -->
<!DOCTYPE svg PUBLIC "-//W3C//DTD SVG 1.1//EN" "http://www.w3.org/Graphics/SVG/1.1/DTD/svg11.dtd">
<svg version="1.1" id="Layer_1" xmlns="http://www.w3.org/2000/svg" xmlns:xlink="http://www.w3.org/1999/xlink" x="0px" y="0px"
	 width="20.625px" height="20.625px" viewBox="0 0 20.625 20.625" enable-background="new 0 0 20.625 20.625" xml:space="preserve">
<g>
	<path d="M8.658,4.997c0.101-0.015,0.371-0.082,0.327-0.69C8.939,3.699,8.528,3.644,8.423,3.662C8.339,3.677,8.06,3.73,8.06,4.376
		C8.06,5.02,8.561,5.012,8.658,4.997z"/>
	<path d="M11.24,5.059c0.188-0.016,0.47-0.289,0.464-0.768c-0.009-0.478-0.397-0.742-0.677-0.713
		c-0.144,0.015-0.464,0.06-0.439,0.759C10.609,5.036,11.05,5.073,11.24,5.059z"/>
	<path d="M18.45,16.482c-0.202-0.104-0.395-0.202-0.508-0.364c-0.143-0.205-0.231-0.521-0.311-0.801
		c-0.112-0.402-0.211-0.749-0.477-0.843c-0.033-0.011-0.07-0.018-0.11-0.023c0.183-0.816,0.446-2.387-0.477-4.071
		c-0.955-1.746-2.065-2.84-2.61-4.084c-0.548-1.245-0.076-3.78-1.125-5.162c-1.047-1.383-2.641-1.184-3.764-1.018
		c-1.124,0.169-1.67,1.609-1.7,2.703C7.338,3.912,7.582,5.946,7.582,6.433c0,0.485-0.41,1.063-0.941,1.654
		c-0.533,0.591-1.216,1.685-1.337,2.384s-0.607,1.441-0.986,2.172c-0.36,0.688-0.447,1.161-0.34,1.504
		c-0.185,0.155-0.264,0.357-0.325,0.512c-0.038,0.095-0.074,0.185-0.118,0.227c-0.045,0.034-0.247,0.037-0.381,0.039
		c-0.378,0.006-0.895,0.013-1.158,0.445c-0.235,0.387-0.139,0.857-0.052,1.273c0.059,0.276,0.113,0.536,0.069,0.737
		c-0.044,0.221-0.146,0.364-0.255,0.517c-0.14,0.196-0.3,0.42-0.279,0.783c0.035,0.611,1.054,0.787,2.039,0.958
		c0.178,0.031,0.347,0.058,0.5,0.089c0.415,0.083,0.868,0.25,1.306,0.413c0.536,0.2,1.041,0.39,1.504,0.44
		c0.053,0.005,0.105,0.008,0.155,0.008c0.852,0,1.297-0.78,1.315-0.814l0.019-0.034l0.002-0.009c0.316-0.113,0.902-0.228,1.98-0.258
		c1.287-0.033,2.058,0.138,2.483,0.293c0.097,0.302,0.299,0.556,0.675,0.696c0.287,0.107,0.604,0.164,0.914,0.164
		c0.591,0,1.1-0.208,1.431-0.588c0.467-0.53,0.927-0.911,1.59-1.31c0.163-0.098,0.362-0.182,0.573-0.271
		c0.542-0.229,1.156-0.488,1.184-1.085C19.174,16.851,18.774,16.646,18.45,16.482z M8.462,3.138C8.985,3.152,9.175,3.716,9.16,4.102
		C9.152,4.272,9.137,4.503,9.077,4.706c0.158-0.069,0.314-0.113,0.455-0.127c0.172-0.013,0.515,0.058,0.895,0.172
		c-0.11-0.229-0.185-0.498-0.197-0.785c-0.037-0.896,0.563-0.911,0.722-0.941c0.418-0.079,0.798,0.197,0.91,0.599
		c0.088,0.307,0.1,1.211-0.136,1.65c0.251,0.139,0.417,0.274,0.417,0.384c0,0.388-1.616,1.663-2.641,1.678
		c-0.78,0.013-1.297-0.701-1.504-1.189C8.189,6.337,8.61,6.662,9.317,6.7c1.012,0.055,2.227-1.007,2.227-1.007
		s-1.442,0.779-2.172,0.806C8.705,6.521,8.034,6.03,7.926,5.948C7.904,5.88,7.894,5.822,7.892,5.78
		C7.886,5.629,8.088,5.376,8.371,5.145C8.011,5.054,7.816,4.735,7.81,4.216C7.804,3.798,7.937,3.122,8.462,3.138z M7.908,19.598
		c-0.081,0.125-0.401,0.567-0.926,0.567c-0.035,0-0.071-0.004-0.107-0.007c-0.412-0.047-0.893-0.226-1.403-0.415
		c-0.453-0.17-0.924-0.346-1.372-0.433c-0.16-0.03-0.328-0.062-0.509-0.092c-0.43-0.074-0.875-0.152-1.216-0.264
		c-0.43-0.141-0.47-0.263-0.472-0.299c-0.013-0.215,0.076-0.341,0.201-0.515c0.115-0.163,0.261-0.367,0.325-0.674
		c0.062-0.287-0.005-0.605-0.069-0.912c-0.077-0.371-0.15-0.722-0.003-0.964c0.132-0.217,0.417-0.237,0.802-0.243
		c0.275-0.004,0.511-0.008,0.665-0.153c0.115-0.107,0.171-0.246,0.224-0.382c0.09-0.228,0.161-0.406,0.499-0.459
		c0.05-0.008,0.1-0.013,0.146-0.013c0.453,0,0.725,0.368,1.008,0.813c0.092,0.142,0.282,0.414,0.526,0.759
		c0.574,0.811,1.533,2.167,1.633,2.538C7.98,18.889,7.926,19.446,7.908,19.598z M12.965,16.559c0.003,0.047,0.006,0.095,0.008,0.141
		c-0.519,0.896-2.173,1.54-3.084,1.65c-0.69,0.082-1.369-0.136-1.732-0.286c-0.102-0.2-0.26-0.46-0.453-0.76
		c0.282-0.016,0.694-0.18,0.684-0.686c-0.018-0.683-1.899-1.745-2.338-2.23c-0.441-0.486-0.092-2.278,0.241-2.99
		c0.334-0.714,0.806-1.671,1.094-2.536c0.289-0.866,0.806-1.974,0.806-1.974s0.621,0.697,1.29,0.667
		c1.108,0.03,2.382-1.153,2.382-1.153s0.866,1.959,1.018,2.565c0.151,0.608,0.502,0.805,0.941,1.763
		c0.44,0.955,0.335,1.988,0.319,3.43c0,0.047,0,0.093,0,0.136c-0.166-0.051-0.329-0.085-0.478-0.085
		c-0.115,0-0.218,0.019-0.307,0.06C12.881,14.479,12.894,15.313,12.965,16.559z M18.726,17.354
		c-0.015,0.305-0.376,0.481-0.928,0.714c-0.214,0.09-0.435,0.184-0.626,0.297c-0.704,0.423-1.192,0.826-1.689,1.395
		c-0.25,0.284-0.645,0.442-1.111,0.442c-0.257,0-0.528-0.05-0.764-0.138c-0.637-0.238-0.517-1.017-0.309-1.932
		c0.048-0.214,0.094-0.415,0.109-0.58c0.028-0.24,0.005-0.602-0.019-1.019c-0.024-0.423-0.053-0.9-0.027-1.279
		c0.033-0.522,0.151-0.591,0.166-0.597c0.033-0.015,0.079-0.022,0.134-0.022c0.144,0,0.322,0.049,0.509,0.123
		c0.117,0.88,0.545,0.973,0.941,1.088c0.398,0.116,1.368-0.339,1.763-0.963c0.04-0.005,0.076-0.008,0.106-0.008
		c0.017,0,0.026,0.001,0.031,0.001c0.069,0.056,0.155,0.355,0.21,0.556c0.089,0.312,0.187,0.666,0.371,0.929
		c0.173,0.25,0.435,0.383,0.665,0.5C18.606,17.037,18.734,17.126,18.726,17.354z"/>
</g>
</svg>
