<?xml version="1.0" encoding="utf-8"?>
<!-- Generator: Adobe Illustrator 16.0.0, SVG Export Plug-In . SVG Version: 6.00 Build 0)  -->
<!DOCTYPE svg PUBLIC "-//W3C//DTD SVG 1.1//EN" "http://www.w3.org/Graphics/SVG/1.1/DTD/svg11.dtd">
<svg version="1.1" id="Layer_1" xmlns="http://www.w3.org/2000/svg" xmlns:xlink="http://www.w3.org/1999/xlink" x="0px" y="0px"
	 width="20.625px" height="20.625px" viewBox="0 0 20.625 20.625" enable-background="new 0 0 20.625 20.625" xml:space="preserve">
<g>
	<path d="M13.543,3.421c1.355-1.528,1.132-3.36,1.132-3.36s-1.677,0.037-3.009,1.534c-1.334,1.498-1.096,3.202-1.096,3.202
		S12.188,4.949,13.543,3.421z"/>
	<path d="M16.178,10.893c0-2.563,2.225-3.845,2.225-3.845c-0.605-1.071-2.374-2.065-3.963-2.065c-1.59,0-2.99,0.974-3.716,0.974
		c-0.725,0-2.057-0.894-3.269-0.894c-2.444,0-3.894,1.688-4.509,2.87C2.33,9.117,2.181,10.536,2.26,11.777
		c0.08,1.242,0.447,3.199,1.501,5.125c1.053,1.928,2.449,3.662,3.784,3.662c1.336,0,1.883-0.84,3.384-0.84
		c1.692,0,2.05,0.814,3.481,0.814c0.774,0,1.489-0.229,2.86-2.145c1.281-1.795,1.668-3.311,1.668-3.311S16.178,14.07,16.178,10.893z
		"/>
</g>
</svg>
