<?xml version="1.0" encoding="utf-8"?>
<!-- Generator: Adobe Illustrator 16.0.0, SVG Export Plug-In . SVG Version: 6.00 Build 0)  -->
<!DOCTYPE svg PUBLIC "-//W3C//DTD SVG 1.1//EN" "http://www.w3.org/Graphics/SVG/1.1/DTD/svg11.dtd">
<svg version="1.1" id="Layer_1" xmlns="http://www.w3.org/2000/svg" xmlns:xlink="http://www.w3.org/1999/xlink" x="0px" y="0px"
	 width="20.625px" height="20.625px" viewBox="0 0 20.625 20.625" enable-background="new 0 0 20.625 20.625" xml:space="preserve">
<g id="SDC_2_">
	<path d="M10.313,0L1.382,5.156v10.313l8.931,5.156l8.931-5.156V5.156L10.313,0z M17.426,14.254l-7.113,4.108l-7.113-4.108V6.04
		l7.113-4.106l7.113,4.106V14.254z"/>
	<polygon points="4.758,6.939 4.758,8.116 13.021,12.795 10.313,14.358 6.666,12.253 6.666,9.815 4.758,8.734 4.758,13.354 
		10.313,16.561 15.867,13.354 15.867,12.016 7.741,7.42 10.313,5.936 13.959,8.041 13.959,10.318 15.867,11.398 15.867,6.939 
		10.313,3.733 	"/>
</g>
</svg>
