<?xml version="1.0" encoding="utf-8"?>
<!-- Generator: Adobe Illustrator 16.0.0, SVG Export Plug-In . SVG Version: 6.00 Build 0)  -->
<!DOCTYPE svg PUBLIC "-//W3C//DTD SVG 1.1//EN" "http://www.w3.org/Graphics/SVG/1.1/DTD/svg11.dtd">
<svg version="1.1" id="Layer_1" xmlns="http://www.w3.org/2000/svg" xmlns:xlink="http://www.w3.org/1999/xlink" x="0px" y="0px"
	 width="20.625px" height="20.625px" viewBox="0 0 20.625 20.625" enable-background="new 0 0 20.625 20.625" xml:space="preserve">
<path d="M0,0v20.625h20.625V0H0z M16.978,7.077c-0.426,0.448-0.725,0.632-0.725,0.632s0.032,1.2-0.227,2.304
	c-0.26,1.104-0.989,2.655-2.174,3.839c-1.184,1.185-3.137,2.314-5.688,2.314s-4.336-1.298-4.336-1.298s1.119,0.113,2.299-0.194
	c1.179-0.309,1.919-0.985,1.919-0.985s-0.844,0.044-1.648-0.556c-0.807-0.6-1.028-1.422-1.028-1.422s0.286,0.069,0.648,0.06
	c0.362-0.011,0.655-0.082,0.655-0.082s-0.897-0.167-1.596-0.95C4.38,9.953,4.386,8.834,4.386,8.834s0.27,0.195,0.632,0.287
	C5.38,9.212,5.693,9.223,5.693,9.223s-0.61-0.514-0.812-0.811c-0.2-0.297-0.46-0.691-0.46-1.567c0-0.877,0.396-1.434,0.396-1.434
	S5.985,6.818,7.526,7.59c1.541,0.774,3.121,0.796,3.121,0.796s-0.071-1.276,0.216-1.876c0.286-0.602,1.075-1.612,2.471-1.612
	s2.146,0.888,2.146,0.888s0.438-0.071,0.876-0.228c0.438-0.157,0.93-0.443,0.93-0.443s-0.188,0.589-0.529,0.962
	c-0.341,0.374-0.708,0.589-0.708,0.589s0.308-0.021,0.777-0.141c0.472-0.118,0.827-0.285,0.827-0.285S17.404,6.628,16.978,7.077z"/>
</svg>
