<?xml version="1.0" encoding="utf-8"?>
<!-- Generator: Adobe Illustrator 16.0.0, SVG Export Plug-In . SVG Version: 6.00 Build 0)  -->
<!DOCTYPE svg PUBLIC "-//W3C//DTD SVG 1.1//EN" "http://www.w3.org/Graphics/SVG/1.1/DTD/svg11.dtd">
<svg version="1.1" id="Layer_1" xmlns="http://www.w3.org/2000/svg" xmlns:xlink="http://www.w3.org/1999/xlink" x="0px" y="0px"
	 width="20.625px" height="20.625px" viewBox="0 0 20.625 20.625" enable-background="new 0 0 20.625 20.625" xml:space="preserve">
<path fill-rule="evenodd" clip-rule="evenodd" d="M20.268,5.436c-0.253-1.097-1.147-1.905-2.229-2.024
	c-2.559-0.287-5.146-0.288-7.725-0.287c-2.576-0.001-5.165,0-7.723,0.287C1.511,3.531,0.616,4.339,0.362,5.436
	C0.003,6.999,0,8.704,0,10.312c0,1.61,0,3.315,0.359,4.877c0.253,1.096,1.146,1.904,2.229,2.025
	c2.558,0.285,5.146,0.287,7.724,0.285c2.577,0.002,5.165,0,7.724-0.285c1.08-0.121,1.976-0.93,2.229-2.025
	c0.359-1.563,0.36-3.268,0.36-4.877C20.625,8.704,20.627,6.999,20.268,5.436z M7.367,14.438v-8.25l7.267,4.03L7.367,14.438z"/>
</svg>
